<svg width="20" height="18" viewBox="0 0 20 18" fill="none" xmlns="http://www.w3.org/2000/svg">
<path fill-rule="evenodd" clip-rule="evenodd" d="M7.83459 1.55018C8.12262 0.618561 8.98954 -0.0122994 9.96459 0.000181925C10.9451 -0.00966892 11.8138 0.630633 12.0946 1.57018L12.7546 3.57018C13.051 4.49581 13.9127 5.12289 14.8846 5.12018H16.9646C17.9594 5.08249 18.8597 5.70582 19.1745 6.65023C19.4893 7.59463 19.143 8.63347 18.3246 9.20018L16.6146 10.4502C15.8264 11.0163 15.4948 12.0272 15.7946 12.9502L16.4546 14.9502C16.6814 15.6425 16.5589 16.4019 16.1259 16.9878C15.6929 17.5737 15.003 17.9137 14.2746 17.9002C13.8022 17.8966 13.3433 17.7425 12.9646 17.4602L11.3246 16.2102C10.5381 15.6365 9.4711 15.6365 8.68459 16.2102L6.96459 17.4602C6.58132 17.7686 6.10645 17.9409 5.61459 17.9502C4.88087 17.9563 4.19027 17.6042 3.76416 17.0069C3.33806 16.4095 3.22999 15.642 3.47459 14.9502L4.13459 12.9502C4.45257 12.03 4.13682 11.0098 3.35459 10.4302L1.64459 9.18018C0.851962 8.61152 0.5185 7.59527 0.820124 6.66755C1.12175 5.73983 1.98909 5.11399 2.96459 5.12018H5.04459C6.02192 5.12014 6.88534 4.48372 7.17459 3.55018L7.83459 1.55018ZM10.4946 2.07018C10.4331 1.83072 10.2115 1.66766 9.96459 1.68018C9.70542 1.67131 9.47932 1.85474 9.43459 2.11018L8.77459 4.11018C8.25007 5.7265 6.74389 6.8208 5.04459 6.82018H2.92459C2.68895 6.82697 2.48279 6.98059 2.40892 7.20446C2.33504 7.42832 2.40927 7.67448 2.59459 7.82018L4.30459 9.07018C5.68388 10.0678 6.26166 11.8416 5.73459 13.4602L5.07459 15.4602C5.00977 15.6244 5.03638 15.8107 5.14459 15.9502C5.25682 16.1117 5.43806 16.2116 5.63459 16.2202C5.75461 16.2166 5.8703 16.1745 5.96459 16.1002L7.65459 14.8502C9.03201 13.8494 10.8972 13.8494 12.2746 14.8502L13.9446 16.0402C14.0389 16.1145 14.1546 16.1566 14.2746 16.1602C14.4622 16.148 14.6346 16.0526 14.7446 15.9002C14.8528 15.7607 14.8794 15.5744 14.8146 15.4102L14.1546 13.4102C13.6275 11.7916 14.2053 10.0178 15.5846 9.02018L17.2946 7.78018C17.4799 7.63448 17.5541 7.38832 17.4803 7.16446C17.4064 6.94059 17.2002 6.78697 16.9646 6.78018H14.8846C13.1853 6.7808 11.6791 5.6865 11.1546 4.07018L10.4946 2.07018Z" fill="white"/>
</svg>
