<svg width="16" height="18" viewBox="0 0 16 18" fill="none" xmlns="http://www.w3.org/2000/svg">
<path d="M13.8705 5.9759L6.7155 0.725899C6.15667 0.316688 5.49542 0.0702447 4.80507 0.0138964C4.11473 -0.0424519 3.42227 0.0934965 2.80447 0.406667C2.18667 0.719837 1.66768 1.19799 1.30504 1.78811C0.942405 2.37823 0.75029 3.05726 0.75 3.7499V14.2499C0.750124 14.9429 0.94225 15.6222 1.30506 16.2126C1.66786 16.803 2.18716 17.2813 2.80532 17.5945C3.42347 17.9076 4.11631 18.0434 4.80693 17.9866C5.49756 17.9299 6.15897 17.683 6.71775 17.2731L13.8727 12.0231C14.3477 11.6748 14.7339 11.2196 15.0002 10.6942C15.2664 10.1688 15.4051 9.58813 15.4051 8.99915C15.4051 8.41017 15.2664 7.82948 15.0002 7.3041C14.7339 6.77873 14.3477 6.32345 13.8727 5.97515L13.8705 5.9759ZM12.9825 10.8134L5.8275 16.0634C5.49226 16.3084 5.09578 16.4558 4.68193 16.4894C4.26808 16.5229 3.85302 16.4414 3.48268 16.2536C3.11233 16.0659 2.80116 15.7793 2.5836 15.4257C2.36604 15.0721 2.25058 14.6651 2.25 14.2499V3.7499C2.24584 3.33391 2.35912 2.92519 2.57683 2.57069C2.79454 2.2162 3.10785 1.93032 3.48075 1.7459C3.79792 1.58457 4.14866 1.50029 4.5045 1.4999C4.98142 1.50172 5.44516 1.65656 5.8275 1.94165L12.9825 7.19165C13.2671 7.40067 13.4985 7.67375 13.6581 7.9888C13.8176 8.30385 13.9007 8.65202 13.9007 9.00515C13.9007 9.35828 13.8176 9.70645 13.6581 10.0215C13.4985 10.3365 13.2671 10.6096 12.9825 10.8186V10.8134Z" fill="white"/>
</svg>
