<svg width="19" height="18" viewBox="0 0 19 18" fill="none" xmlns="http://www.w3.org/2000/svg">
<path fill-rule="evenodd" clip-rule="evenodd" d="M18.3754 8.32006C18.2331 6.02352 17.2041 3.87211 15.5054 2.32006L15.4954 2.26006C15.4197 2.16718 15.3191 2.0978 15.2054 2.06006C13.6044 0.721709 11.582 -0.00790427 9.49538 6.45923e-05H8.90538C7.78917 0.100288 6.70099 0.405384 5.69538 0.900065H5.60538C1.8818 2.7153 -0.0970462 6.85954 0.83216 10.8964C1.76137 14.9334 5.35291 17.7954 9.49538 17.8001H10.0854C12.4423 17.6435 14.6403 16.5565 16.1953 14.7783C17.7502 13.0002 18.5345 10.6768 18.3754 8.32006ZM11.6954 8.67006C11.3754 8.05006 11.0454 7.43006 10.6954 6.83006C11.8036 6.21899 12.8458 5.49516 13.8054 4.67006L14.8054 3.79006C15.951 4.99195 16.656 6.54635 16.8054 8.20006C15.1265 8.02579 13.4298 8.1717 11.8054 8.63006L11.6954 8.67006ZM9.50538 1.52006H9.01538C8.39833 1.56916 7.79007 1.69686 7.20538 1.90006C8.19058 3.05375 9.09601 4.27324 9.91538 5.55006C10.9539 4.98391 11.9322 4.31381 12.8354 3.55006L13.6654 2.83006C12.4443 1.98027 10.993 1.52326 9.50538 1.52006ZM5.78537 2.52006L5.85537 2.59006C6.8434 3.73799 7.74899 4.95436 8.56537 6.23006C7.00683 6.91146 5.3553 7.35637 3.66538 7.55006L2.20538 7.71006C2.56503 5.53019 3.87739 3.62397 5.78537 2.51006V2.52006ZM2.11537 9.22006V9.38006C2.23737 11.1065 2.9631 12.735 4.16537 13.9801C5.2017 12.3798 6.60797 11.0524 8.26538 10.1101C8.91307 9.7608 9.58091 9.45025 10.2654 9.18006C9.97538 8.61006 9.67538 8.05006 9.35538 7.50006C7.60687 8.29603 5.74415 8.81233 3.83537 9.03006L2.11537 9.22006ZM9.97538 16.2801H9.48538C7.97753 16.2777 6.5072 15.8097 5.27538 14.9401C6.1927 13.4784 7.45679 12.2658 8.95538 11.4101C9.60369 11.0708 10.2715 10.7703 10.9554 10.5101C11.6212 11.981 12.1793 13.4983 12.6254 15.0501L12.7654 15.5301C11.8956 15.966 10.9465 16.2211 9.97538 16.2801ZM14.0554 14.7201C14.4172 14.4385 14.752 14.1238 15.0554 13.7801C16.0682 12.6413 16.7009 11.2152 16.8654 9.70006C15.3573 9.53115 13.8309 9.64648 12.3654 10.0401C13.0379 11.5379 13.6027 13.0818 14.0554 14.6601V14.7201Z" fill="#F5AD22"/>
</svg>
