<svg width="38" height="38" viewBox="0 0 38 38" fill="none" xmlns="http://www.w3.org/2000/svg">
<rect x="0.5" y="0.5" width="37" height="37" rx="18.5" fill="url(#paint0_linear_2050_23103)" stroke="url(#paint1_linear_2050_23103)"/>
<path fill-rule="evenodd" clip-rule="evenodd" d="M13.6 10H24.4C26.3882 10 28 11.6118 28 13.6V24.4C28 26.3882 26.3882 28 24.4 28H13.6C11.6118 28 10 26.3882 10 24.4V13.6C10 11.6118 11.6118 10 13.6 10ZM25.9337 25.9337C26.3405 25.5269 26.569 24.9753 26.569 24.4V13.6C26.569 13.0247 26.3405 12.4731 25.9337 12.0663C25.5269 11.6595 24.9753 11.431 24.4 11.431H13.6C12.4021 11.431 11.431 12.4021 11.431 13.6V24.4C11.431 24.9753 11.6595 25.5269 12.0663 25.9337C12.4731 26.3405 13.0247 26.569 13.6 26.569H24.4C24.9753 26.569 25.5269 26.3405 25.9337 25.9337ZM16.2996 14.9501C16.2996 15.6957 15.6952 16.3001 14.9496 16.3001C14.204 16.3001 13.5996 15.6957 13.5996 14.9501C13.5996 14.2045 14.204 13.6001 14.9496 13.6001C15.6952 13.6001 16.2996 14.2045 16.2996 14.9501ZM23.0502 16.3C23.7958 16.3 24.4002 15.6956 24.4002 14.95C24.4002 14.2044 23.7958 13.6 23.0502 13.6C22.3046 13.6 21.7002 14.2044 21.7002 14.95C21.7002 15.6956 22.3046 16.3 23.0502 16.3ZM24.4002 23.0502C24.4002 23.7958 23.7958 24.4002 23.0502 24.4002C22.3046 24.4002 21.7002 23.7958 21.7002 23.0502C21.7002 22.3046 22.3046 21.7002 23.0502 21.7002C23.7958 21.7002 24.4002 22.3046 24.4002 23.0502ZM14.9496 24.4002C15.6952 24.4002 16.2996 23.7958 16.2996 23.0502C16.2996 22.3046 15.6952 21.7002 14.9496 21.7002C14.204 21.7002 13.5996 22.3046 13.5996 23.0502C13.5996 23.7958 14.204 24.4002 14.9496 24.4002Z" fill="url(#paint2_linear_2050_23103)"/>
<defs>
<linearGradient id="paint0_linear_2050_23103" x1="2.44286" y1="1.98324" x2="25.7044" y2="38.447" gradientUnits="userSpaceOnUse">
<stop stop-color="#717379"/>
<stop offset="0.638974" stop-color="#080E13"/>
</linearGradient>
<linearGradient id="paint1_linear_2050_23103" x1="33.3857" y1="32.9164" x2="11.2858" y2="-0.221711" gradientUnits="userSpaceOnUse">
<stop stop-color="#F8B025"/>
<stop offset="0.58" stop-color="#171525" stop-opacity="0"/>
</linearGradient>
<linearGradient id="paint2_linear_2050_23103" x1="18.01" y1="26.3125" x2="18.01" y2="11.125" gradientUnits="userSpaceOnUse">
<stop stop-color="#E68E0B"/>
<stop offset="1" stop-color="#FFCE50"/>
</linearGradient>
</defs>
</svg>
