<svg width="38" height="38" viewBox="0 0 38 38" fill="none" xmlns="http://www.w3.org/2000/svg">
<rect x="0.5" y="0.5" width="37" height="37" rx="18.5" fill="url(#paint0_linear_2048_23100)" stroke="url(#paint1_linear_2048_23100)"/>
<path fill-rule="evenodd" clip-rule="evenodd" d="M18.21 10.8404C18.6702 10.4647 19.3312 10.4647 19.7913 10.8404L25.0888 15.1662C25.3795 15.4036 25.5482 15.7591 25.5482 16.1344V24.5496C25.5482 24.8137 25.4479 25.0601 25.2801 25.2362C25.1135 25.4112 24.8956 25.5022 24.6765 25.5022H22.3174V17.7393C22.3174 17.325 21.9816 16.9893 21.5674 16.9893H16.5674C16.1532 16.9893 15.8174 17.325 15.8174 17.7393V25.5022H13.3248C13.1057 25.5022 12.8878 25.4112 12.7212 25.2362C12.5534 25.0601 12.4531 24.8137 12.4531 24.5496V16.1344C12.4531 15.7591 12.6218 15.4036 12.9125 15.1662L18.21 10.8404ZM17.3174 25.5022H20.8174V18.4893H17.3174V25.5022ZM20.74 9.67853C19.7278 8.85195 18.2736 8.85195 17.2613 9.67853L11.9638 14.0044C11.3242 14.5266 10.9531 15.3087 10.9531 16.1344V24.5496C10.9531 25.1886 11.1946 25.8083 11.635 26.2708C12.0767 26.7345 12.6837 27.0022 13.3248 27.0022H24.6765C25.3176 27.0022 25.9247 26.7345 26.3663 26.2708C26.8068 25.8083 27.0482 25.1886 27.0482 24.5496V16.1344C27.0482 15.3087 26.6771 14.5266 26.0376 14.0044L20.74 9.67853Z" fill="url(#paint2_linear_2048_23100)"/>
<defs>
<linearGradient id="paint0_linear_2048_23100" x1="2.44286" y1="1.98324" x2="25.7044" y2="38.447" gradientUnits="userSpaceOnUse">
<stop stop-color="#717379"/>
<stop offset="0.638974" stop-color="#080E13"/>
</linearGradient>
<linearGradient id="paint1_linear_2048_23100" x1="33.3857" y1="32.9164" x2="11.2858" y2="-0.221711" gradientUnits="userSpaceOnUse">
<stop stop-color="#F8B025"/>
<stop offset="0.58" stop-color="#171525" stop-opacity="0"/>
</linearGradient>
<linearGradient id="paint2_linear_2048_23100" x1="18.1154" y1="25.32" x2="18.1154" y2="10.1801" gradientUnits="userSpaceOnUse">
<stop stop-color="#E68E0B"/>
<stop offset="1" stop-color="#FFCE50"/>
</linearGradient>
</defs>
</svg>
