<svg width="25" height="26" viewBox="0 0 25 26" fill="none" xmlns="http://www.w3.org/2000/svg">
<rect y="0.5" width="25" height="25" rx="12.5" fill="#080E13"/>
<path fill-rule="evenodd" clip-rule="evenodd" d="M9.99972 9.11149C9.99972 7.65252 11.1359 6.50098 12.4996 6.50098C13.8633 6.50098 14.9995 7.65252 14.9995 9.11149C14.9995 10.5705 13.8633 11.722 12.4996 11.722C11.1359 11.722 9.99972 10.5705 9.99972 9.11149ZM12.4996 5.50098C10.5498 5.50098 8.99972 7.13468 8.99972 9.11149C8.99972 11.0883 10.5498 12.722 12.4996 12.722C14.4494 12.722 15.9995 11.0883 15.9995 9.11149C15.9995 7.13468 14.4494 5.50098 12.4996 5.50098ZM9.50013 14.833C8.56594 14.833 7.67384 15.218 7.01899 15.897C6.36474 16.5753 6.00024 17.4917 6.00024 18.4435V19.9988C6.00024 20.2749 6.2241 20.4988 6.50024 20.4988C6.77639 20.4988 7.00024 20.2749 7.00024 19.9988V18.4435C7.00024 17.7454 7.26786 17.0794 7.73878 16.5912C8.20911 16.1035 8.84308 15.833 9.50013 15.833H15.4999C16.1569 15.833 16.7909 16.1035 17.2612 16.5912C17.7322 17.0794 17.9998 17.7454 17.9998 18.4435V19.9988C17.9998 20.2749 18.2236 20.4988 18.4998 20.4988C18.7759 20.4988 18.9998 20.2749 18.9998 19.9988V18.4435C18.9998 17.4917 18.6353 16.5753 17.981 15.897C17.3262 15.218 16.4341 14.833 15.4999 14.833H9.50013Z" fill="#F5AD22"/>
</svg>
